<svg xmlns="http://www.w3.org/2000/svg" width="734.062" height="460.863" viewBox="0 0 734.062 460.863"><defs><style>.a{fill:#fdf8e8;}.b,.c{fill:#f2d98d;}.b,.d,.g,.h{opacity:0.2;}.e{fill:#110002;}.f,.g{fill:#a60311;}.h{fill:#f2c12e;}.i{fill:#a0616a;}.j{opacity:0.1;}.k{fill:#f2f2f2;}.l{fill:#3c354c;}.m{fill:#3f3d56;}.n{fill:#ffc1c7;}.o{fill:none;stroke:#130002;stroke-miterlimit:10;stroke-width:4px;}</style></defs><g transform="translate(0.023 -0.05)"><path class="a" d="M146.439,443.373l-3.9-2.424c-.372-.229-.738-.477-1.11-.713a37.107,37.107,0,0,0,3.75-72.293l.192,15.287-8.4-16.632h-.105a37.113,37.113,0,0,0-38.793,35.334c-.037.713,0,1.407,0,2.108a44.382,44.382,0,0,1-7.333-10.83c-3.552-7.929-3.62-16.911-3.341-27.833.558-21.634,1.494-43.443,2.709-65.176a37.1,37.1,0,0,0,32.954-35.111c.05-1.134.031-2.25,0-3.366a5.33,5.33,0,0,0-.043-.831c-.074-1.079-.174-2.145-.341-3.2a2.822,2.822,0,0,0-.093-.508c-.149-.893-.335-1.773-.546-2.641-.081-.329-.161-.651-.248-.973-.26-.948-.546-1.86-.88-2.8-.112-.3-.236-.62-.36-.905-.26-.676-.546-1.345-.849-2-.161-.347-.316-.694-.484-1.035-.05-.087-.081-.18-.13-.267h0a37.1,37.1,0,0,0-43.566-18.82l.248,19.9L67.464,231.2a36.927,36.927,0,0,0-17.7,39.99h-.074c.056.267.136.521.2.781.118.49.242.973.378,1.457q.27.93.577,1.86c.155.459.3.911.477,1.364.254.657.539,1.3.824,1.934.167.372.316.756.5,1.122q.707,1.438,1.537,2.808c.192.322.409.62.62.936.4.62.793,1.24,1.24,1.816.267.366.552.719.831,1.072.409.514.824,1.023,1.24,1.513.3.353.62.694.936,1.029.459.484.924.948,1.407,1.4.322.3.62.62.973.905.546.49,1.116.948,1.692,1.4.291.229.577.465.874.688q1.32.93,2.721,1.86c.174.105.366.192.539.3.787.459,1.581.9,2.4,1.3.353.174.713.329,1.072.49.669.3,1.345.589,2.039.855l1.24.434c.682.229,1.376.446,2.077.62.409.112.824.229,1.24.329.756.18,1.531.329,2.312.465l.149.031q-.762,13.755-1.364,27.517a37.088,37.088,0,0,0-51.495-16.117l6.559,17.977-13.5-12.956A36.983,36.983,0,0,0,7.972,342.007a36.264,36.264,0,0,0,.942,10.222,37.095,37.095,0,0,0,68.226,10.1c0,.93-.062,1.86-.087,2.8-.248,9.633-.558,21.622,4.246,32.328,3.254,7.253,8.486,13.148,13.638,18.43,3.366,3.434,6.856,6.763,10.433,9.98a37.249,37.249,0,0,0,13.4,11.158c5.877,4.525,11.964,8.784,18.256,12.714l3.93,2.442c3.533,2.188,7.154,4.438,10.7,6.776-.62-.062-1.24-.13-1.86-.161a37.126,37.126,0,0,0-36.537,24.176l23.184,18.864-25.5-5.914A37.126,37.126,0,0,0,164.186,529.3l-1.723,2.139q-1.711,2.126-3.378,4.228c-15.088,19.112-19.285,37.25-11.815,51.08l9.088-4.9c-7.271-13.464,3.664-30.7,10.83-39.773q1.637-2.064,3.323-4.153c9.639-11.976,20.562-25.552,20.3-42.2C190.383,470.611,166.046,455.51,146.439,443.373Z" transform="translate(-7.95 -134.477)"/><path class="b" d="M879.367,349.171l4.86-3.025c.465-.291.917-.62,1.382-.893a46.284,46.284,0,0,1-4.68-90.189l-.242,19.074L891.17,253.39h.124A46.306,46.306,0,0,1,939.7,297.483c.044.886,0,1.754,0,2.628a55.132,55.132,0,0,0,9.15-13.508c4.438-9.918,4.525-21.077,4.172-34.714-.694-27-1.86-54.2-3.378-81.312a46.282,46.282,0,0,1-41.112-43.808c-.062-1.413-.043-2.808,0-4.2a9.775,9.775,0,0,1,.056-1.041c.087-1.345.217-2.678.415-3.986.031-.217.087-.428.118-.62q.285-1.674.688-3.3c.1-.4.2-.812.3-1.24.329-1.178.682-2.349,1.1-3.49.136-.384.3-.75.446-1.128.335-.849.688-1.68,1.066-2.48.2-.428.391-.862.62-1.289.05-.105.1-.223.155-.329h0A46.244,46.244,0,0,1,967.851,80.2l-.31,24.8,10.365-20.506a46.04,46.04,0,0,1,22.075,49.889h.056c-.074.329-.18.62-.254.973-.149.62-.3,1.24-.471,1.816-.217.775-.465,1.531-.719,2.287-.192.57-.378,1.141-.62,1.7-.316.818-.67,1.618-1.029,2.411-.211.465-.4.942-.62,1.4-.589,1.2-1.24,2.368-1.915,3.5-.235.4-.508.781-.762,1.172-.5.769-1,1.525-1.537,2.263-.335.459-.688.893-1.035,1.339-.508.62-1.023,1.277-1.568,1.891q-.564.62-1.172,1.283c-.564.62-1.153,1.178-1.748,1.742-.4.384-.8.769-1.24,1.134-.688.62-1.395,1.178-2.12,1.742-.359.285-.713.589-1.085.862-1.1.806-2.225,1.575-3.4,2.287-.217.13-.453.242-.676.372q-1.463.868-2.988,1.618c-.44.217-.893.4-1.339.62-.837.378-1.68.738-2.542,1.066-.508.192-1.017.372-1.525.546-.856.291-1.717.552-2.591.793-.514.143-1.029.285-1.556.415-.948.223-1.909.409-2.883.576l-.192.037q.967,17.165,1.7,34.336a46.257,46.257,0,0,1,64.246-20.085l-8.177,22.416,16.83-16.161a46.121,46.121,0,0,1,15.07,31.937,45.21,45.21,0,0,1-1.172,12.751,46.282,46.282,0,0,1-85.124,12.609c0,1.159.081,2.331.112,3.49.31,12.02.694,26.978-5.294,40.331-4.06,9.057-10.594,16.4-17.053,22.992q-6.3,6.435-13.018,12.454a46.456,46.456,0,0,1-16.737,13.9c-7.333,5.647-14.927,10.96-22.775,15.869l-4.9,3.044c-4.407,2.728-8.92,5.536-13.353,8.449.781-.074,1.55-.161,2.343-.2a46.319,46.319,0,0,1,45.556,30.139l-28.924,23.556,31.819-7.371a46.325,46.325,0,0,1-66.379,41.694c.719.893,1.432,1.785,2.151,2.672,1.419,1.767,2.839,3.527,4.221,5.275,18.82,23.835,24.058,46.492,14.735,63.726L867,521.942c9.069-16.8-4.575-38.3-13.52-49.592-1.358-1.717-2.746-3.447-4.141-5.182-12.026-14.94-25.658-31.875-25.323-52.648C824.537,383.147,854.937,364.308,879.367,349.171Z" transform="translate(-318.145 -78.25)"/><ellipse class="c" cx="318.628" cy="17.047" rx="318.628" ry="17.047" transform="translate(43.57 426.819)"/><ellipse class="d" cx="285.153" cy="13.638" rx="285.153" ry="13.638" transform="translate(76.425 424.959)"/><path class="e" d="M697.031,248.719V576.36a4.47,4.47,0,0,1-4.469,4.469H159.7a4.463,4.463,0,0,1-4.463-4.469V248.719a4.463,4.463,0,0,1,4.463-4.469H692.543a4.47,4.47,0,0,1,4.488,4.469Z" transform="translate(-63.944 -141.328)"/><path class="c" d="M697.031,247.232v10.036H155.24V247.232a2.982,2.982,0,0,1,2.982-2.982H694.049a2.982,2.982,0,0,1,2.982,2.982Z" transform="translate(-63.944 -141.328)"/><circle class="f" cx="3.099" cy="3.099" r="3.099" transform="translate(98.115 106.021)"/><circle class="f" cx="3.099" cy="3.099" r="3.099" transform="translate(106.793 106.021)"/><circle class="f" cx="3.099" cy="3.099" r="3.099" transform="translate(115.472 106.021)"/><rect class="g" width="164.893" height="8.679" transform="translate(279.751 148.484)"/><rect class="h" width="127.079" height="148.775" transform="translate(142.754 236.51)"/><rect class="h" width="127.079" height="148.775" transform="translate(298.348 236.51)"/><rect class="h" width="127.079" height="148.775" transform="translate(581.022 385.285) rotate(180)"/><path class="i" d="M324.537,574.985c-.378,2.238-2.591,3.645-4.68,4.519s-4.426,1.6-5.765,3.428c-1.8,2.48-1.048,6.032.62,8.6,1.891,2.951,4.755,5.127,7.557,7.234a13.639,13.639,0,0,0,4.091,2.387,12.162,12.162,0,0,0,3.484.372,63.529,63.529,0,0,0,11.264-1.01c4.767-.868,9.863-2.6,12.4-6.745,2.058-3.391,1.928-7.625,1.729-11.592-2.244-.192-4.253-1.413-6.162-2.6-2.256-1.4-4.693-3.031-5.424-5.579-.769-2.672.459-5.97-1.37-8.059-1.24-1.413-3.341-1.581-5.213-1.63q-3.812-.1-7.619-.105c-1.748,0-5.653-.732-7.092.434C319.708,566.759,325.014,572.146,324.537,574.985Z" transform="translate(-123.928 -262.86)"/><path class="j" d="M324.537,574.985c-.378,2.238-2.591,3.645-4.68,4.519s-4.426,1.6-5.765,3.428c-1.8,2.48-1.048,6.032.62,8.6,1.891,2.951,4.755,5.127,7.557,7.234a13.639,13.639,0,0,0,4.091,2.387,12.162,12.162,0,0,0,3.484.372,63.529,63.529,0,0,0,11.264-1.01c4.767-.868,9.863-2.6,12.4-6.745,2.058-3.391,1.928-7.625,1.729-11.592-2.244-.192-4.253-1.413-6.162-2.6-2.256-1.4-4.693-3.031-5.424-5.579-.769-2.672.459-5.97-1.37-8.059-1.24-1.413-3.341-1.581-5.213-1.63q-3.812-.1-7.619-.105c-1.748,0-5.653-.732-7.092.434C319.708,566.759,325.014,572.146,324.537,574.985Z" transform="translate(-123.928 -262.86)"/><circle class="i" cx="18.182" cy="18.182" r="18.182" transform="translate(191.087 274.485)"/><path class="k" d="M359.151,608.574a7.836,7.836,0,0,1-1.023,3.1,5.3,5.3,0,0,1-.558.719,16.157,16.157,0,0,1-3.8,2.647c-3.719,2.263-7.891,5.207-8.586,9.515a32.6,32.6,0,0,1-.936,3.967c-.868,2.951-2,5.852-2.666,8.8a20.008,20.008,0,0,0-.552,5.226,15.856,15.856,0,0,0,.149,1.643c.589,4.178,2.734,7.928,5.257,11.493.273.384.546.769.824,1.147l.18.242H288.092c.1-.378.2-.75.291-1.128a1.777,1.777,0,0,1,.043-.174c.589-2.362,1.1-4.736,1.463-7.129a45.38,45.38,0,0,0,.552-6.422c0-1.86.409-3.918,1.965-4.959.105-.378.2-.762.3-1.141a35.427,35.427,0,0,0-.087-17.128c-.087-.347-.186-.694-.279-1.041-.043-.155-.093-.31-.136-.465a50.769,50.769,0,0,1-1.314-5.027c-.366-2.027-.446-4.184-1.525-5.932s-2.957-2.771-4.624-3.955a10.594,10.594,0,0,1-2.188-1.99h0a4.885,4.885,0,0,1-1.178-2.852,4.216,4.216,0,0,1,.068-.93,7.135,7.135,0,0,1,1.891-3.378c3.769-4.147,9.528-5.889,15.188-5.963h0c.874,0,1.742,0,2.6.074a7.333,7.333,0,0,1,2.92.657,4.432,4.432,0,0,1,1.457,1.2,7.216,7.216,0,0,1,1.24,2.343,13.014,13.014,0,0,1,.5,2.1c.347,2.213.422,4.569,1.587,6.478,2.114,3.459,6.93,4.091,10.91,3.341a24.61,24.61,0,0,0,16.88-12.4,22.777,22.777,0,0,1,1.24-2.25,5.619,5.619,0,0,1,.843-1,34.6,34.6,0,0,1,15.107,6.819,16.5,16.5,0,0,1,3.583,3.719A14.69,14.69,0,0,1,359.151,608.574Z" transform="translate(-111.888 -271.783)"/><path class="i" d="M364.929,651.534a17.458,17.458,0,0,1-2.275,4.872,11.729,11.729,0,0,1-2.628,3.36c-2.2,1.73-5.244,1.692-8.059,1.531h-.223l-1.395-.081-8-.477a45.118,45.118,0,0,1-6.323-.676c-.558-.112-1.11-.248-1.661-.4-3.1-.831-6.131-2.07-9.336-2.25-.93-.056-1.86,0-2.808,0h-.26a13.986,13.986,0,0,1-1.862-.124c-1.014-.148-2.012-.471-3.047-.52-2.653-.136-5,1.457-7.259,2.907l-.62.384a27.893,27.893,0,0,1-5.133,2.554H293.287a3.55,3.55,0,0,1-.5-.465,3.866,3.866,0,0,1-.484-.663c-.031-.056-.062-.112-.087-.167a5.653,5.653,0,0,1,0-4.779,9.354,9.354,0,0,1,1.568-2.356,21.689,21.689,0,0,1,2.269-2.132c4.178-3.484,8.982-6.422,14.326-7.439.372-.068.75-.13,1.122-.18a49.748,49.748,0,0,1,8.059-.267l2.523.05,10.569.217h.291c4.246.081,8.71.112,12.547-1.581a14.739,14.739,0,0,0,1.426-.732,2.684,2.684,0,0,0,.986-.855,2.957,2.957,0,0,0,.291-1.612l-.037-5.579-.074-10.755h0q0-3.961-.05-7.916a5.436,5.436,0,0,1,1.519-4.507c1.544-1.94,5.306-8.79,7.972-8.9a2.145,2.145,0,0,1,1.333.372h0c2.269,1.513,2.281,7.247,2.337,9.181q.093,3.2.279,6.4a217.51,217.51,0,0,0,3.1,26.036C365.028,646.463,365.524,649.054,364.929,651.534Z" transform="translate(-115.807 -277.307)"/><path class="j" d="M364.929,651.534a17.458,17.458,0,0,1-2.275,4.872,11.729,11.729,0,0,1-2.628,3.36c-2.2,1.73-5.244,1.692-8.059,1.531h-.223l-1.395-.081-8-.477a45.118,45.118,0,0,1-6.323-.676c-.558-.112-1.11-.248-1.661-.4-3.1-.831-6.131-2.07-9.336-2.25-.93-.056-1.86,0-2.808,0h-.26a13.986,13.986,0,0,1-1.862-.124c-1.014-.148-2.012-.471-3.047-.52-2.653-.136-5,1.457-7.259,2.907l-.62.384a27.893,27.893,0,0,1-5.133,2.554H293.287a3.55,3.55,0,0,1-.5-.465,3.866,3.866,0,0,1-.484-.663c-.031-.056-.062-.112-.087-.167a5.653,5.653,0,0,1,0-4.779,9.354,9.354,0,0,1,1.568-2.356,21.689,21.689,0,0,1,2.269-2.132c4.178-3.484,8.982-6.422,14.326-7.439.372-.068.75-.13,1.122-.18a49.748,49.748,0,0,1,8.059-.267l2.523.05,10.569.217h.291c4.246.081,8.71.112,12.547-1.581a14.739,14.739,0,0,0,1.426-.732,2.684,2.684,0,0,0,.986-.855,2.957,2.957,0,0,0,.291-1.612l-.037-5.579-.074-10.755h0q0-3.961-.05-7.916a5.436,5.436,0,0,1,1.519-4.507c1.544-1.94,5.306-8.79,7.972-8.9a2.145,2.145,0,0,1,1.333.372h0c2.269,1.513,2.281,7.247,2.337,9.181q.093,3.2.279,6.4a217.51,217.51,0,0,0,3.1,26.036C365.028,646.463,365.524,649.054,364.929,651.534Z" transform="translate(-115.807 -277.307)"/><path class="l" d="M316.73,503.179c-1.575.236-3.316.657-4.172,2-.669,1.041-.62,2.362-.849,3.577a7.935,7.935,0,0,1-3.05,4.879c-1.3.961-2.876,1.5-4.221,2.4s-2.535,2.368-2.356,3.98c.155,1.407,1.277,2.48,1.8,3.806.973,2.418-.174,5.114-1.24,7.495s-2.07,5.182-.849,7.482c1.3,2.424,4.637,3.341,5.579,5.914,1.172,3.1-1.86,6.4-1.469,9.708.335,2.715,3.013,4.655,5.722,5.052a4.634,4.634,0,0,0,3.719-.806,4.874,4.874,0,0,0,1.339-3.577c.167-5.046-2.7-9.677-3.54-14.661a7.867,7.867,0,0,1,.453-4.885c.484-.936,1.24-1.7,1.661-2.678.837-2.027-.112-4.476.787-6.478a16.967,16.967,0,0,1,1.754-2.48,2.927,2.927,0,0,0,.508-2.858A10.012,10.012,0,0,1,322,525.235c1.172-.236,1.141-2.752,2.287-2.393.322.105.508.446.719.713a3.23,3.23,0,0,0,3.434.905,6.75,6.75,0,0,0,3.025-2.176l1.959,2.43a2.238,2.238,0,0,1,2.151-1.364,5.17,5.17,0,0,1,2.542.874c3.719,2.225,6.509,6.782,5.083,10.873-.62,1.748-1.86,3.18-2.69,4.841s-1.041,3.893.285,5.182a10.312,10.312,0,0,1,.855.781c.973,1.147.36,2.895.651,4.339.514,2.659,3.651,3.719,6.292,4.339,1.86.422,4.073.738,5.375-.62,1.426-1.488.787-3.924-.074-5.8s-1.86-4.036-.936-5.87,3.633-2.48,4.606-4.4c1.24-2.436-.948-5.108-1.823-7.7-1.2-3.546.136-7.526-.843-11.158a15.572,15.572,0,0,0-2.74-5.034,32.6,32.6,0,0,0-10.668-9.726,20.686,20.686,0,0,0-12.646-1.94C324.82,502.85,320.766,502.577,316.73,503.179Z" transform="translate(-119.438 -239.344)"/><path class="k" d="M380.225,623.03a1.5,1.5,0,0,1-.713-.986q-2.064-5.8-3.868-11.685a4.544,4.544,0,0,1-.291-2.176,4.228,4.228,0,0,1,1.661-2.263,24.8,24.8,0,0,1,6.788-3.98c1.785-.7,4.42-1.947,6.2-.812,2.207,1.407-.149,4.959-.955,6.819a70.717,70.717,0,0,1-3.719,7.439C384.906,616.131,380.789,623.253,380.225,623.03Z" transform="translate(-147.599 -276.805)"/><path class="i" d="M344.153,661.269a3.719,3.719,0,0,1-.583.831,1.9,1.9,0,0,1-.223.223,2.6,2.6,0,0,1-.279.242h-10.78a27.9,27.9,0,0,1-5.133-2.554l-.62-.384c-2.263-1.451-4.606-3.044-7.259-2.907-1.035.05-2.033.372-3.05.521a13.956,13.956,0,0,1-1.86.124h-.26c-.936,0-1.86-.043-2.808,0-3.2.18-6.23,1.42-9.336,2.25-.552.149-1.1.285-1.661.4a45.109,45.109,0,0,1-6.323.676l-9.4.558h-.223c-2.808.161-5.852.2-8.059-1.531a11.728,11.728,0,0,1-2.628-3.36,17.456,17.456,0,0,1-2.275-4.872c-.62-2.48-.1-5.071.353-7.581a218.355,218.355,0,0,0,3.366-32.445c.056-1.94.068-7.693,2.349-9.187a1.977,1.977,0,0,1,.862-.335h0a2.207,2.207,0,0,1,.459,0c2.666.112,6.428,6.961,7.972,8.9a5.437,5.437,0,0,1,1.519,4.507q0,3.819-.05,7.65v.347q-.043,8.145-.105,16.285a2.957,2.957,0,0,0,.291,1.612,1.773,1.773,0,0,0,.322.391,4.12,4.12,0,0,0,.663.465c4.122,2.43,9.187,2.405,13.973,2.312h.291l10.569-.217,2.523-.05a49.741,49.741,0,0,1,8.059.267c.372.05.75.112,1.122.18a29.185,29.185,0,0,1,11.344,5.12q1.55,1.1,3.013,2.318a12.909,12.909,0,0,1,3.837,4.488A5.654,5.654,0,0,1,344.153,661.269Z" transform="translate(-107.987 -277.28)"/><path class="k" d="M292.721,623.03a1.519,1.519,0,0,0,.713-.986q2.064-5.8,3.868-11.685a4.619,4.619,0,0,0,.285-2.176,4.227,4.227,0,0,0-1.661-2.263,24.637,24.637,0,0,0-6.782-3.98c-1.785-.7-4.414-1.946-6.2-.812-2.207,1.407.143,4.959.955,6.819a69.47,69.47,0,0,0,3.719,7.439C288.041,616.131,292.157,623.253,292.721,623.03Z" transform="translate(-112.135 -276.805)"/><path class="l" d="M831.065,512.028c3.688-.9,6.552,5.207,10.266,4.482,2.039-.4,3.614-2.814,5.678-2.635,2.349.2,3.354,3.416,4.556,5.765,2.089,4.067,6.31,6.528,10.377,6.038,1.277-1.686,1.035-4.277.384-6.385s-1.643-4.153-1.668-6.4c-.031-2.969,1.6-6.255.124-8.679-1.135-1.86-3.453-2.008-5.158-3.155-1.333-.893-2.269-2.387-3.385-3.608a11.189,11.189,0,0,0-6.9-3.626,20.414,20.414,0,0,0-6.571.694l-10.142,2.194a2.82,2.82,0,0,0-1.581.725,5.461,5.461,0,0,0-.818,2.077c-.961,3.149-3.974,4.624-6.435,6.373s-4.8,5.207-3.44,8.152c.769,1.668,2.579,2.7,2.771,4.569.167,1.674-1.041,3.044-2.027,4.283-4.184,5.244,5.195,7.972,7.439,4.414C827.036,523.391,825.79,513.318,831.065,512.028Z" transform="translate(-315.083 -236.167)"/><path class="i" d="M829.519,568.792a30.028,30.028,0,0,0-2.734,3.366,7.742,7.742,0,0,0-.409,5.808,21.942,21.942,0,0,0,2.647,5.331,30.986,30.986,0,0,0,4.649,6.2,11.312,11.312,0,0,0,6.819,3.385c2.758.2,5.424-.936,7.922-2.132a8.68,8.68,0,0,0,2.858-1.86,8.858,8.858,0,0,0,1.388-2.523l2.151-5.151a14.188,14.188,0,0,0,1.24-3.955,14.612,14.612,0,0,0-1.24-6.28l-3.936-10.83a3.657,3.657,0,0,0-.942-1.643,3.552,3.552,0,0,0-1.451-.62,42.106,42.106,0,0,0-7.606-1.24c-1.909-.13-6.242-.806-7.91.273-1.531,1-.893,3.54-1.072,5.182A13.123,13.123,0,0,1,829.519,568.792Z" transform="translate(-318.899 -259.947)"/><path class="j" d="M829.519,568.792a30.028,30.028,0,0,0-2.734,3.366,7.742,7.742,0,0,0-.409,5.808,21.942,21.942,0,0,0,2.647,5.331,30.986,30.986,0,0,0,4.649,6.2,11.312,11.312,0,0,0,6.819,3.385c2.758.2,5.424-.936,7.922-2.132a8.68,8.68,0,0,0,2.858-1.86,8.858,8.858,0,0,0,1.388-2.523l2.151-5.151a14.188,14.188,0,0,0,1.24-3.955,14.612,14.612,0,0,0-1.24-6.28l-3.936-10.83a3.657,3.657,0,0,0-.942-1.643,3.552,3.552,0,0,0-1.451-.62,42.106,42.106,0,0,0-7.606-1.24c-1.909-.13-6.242-.806-7.91.273-1.531,1-.893,3.54-1.072,5.182A13.123,13.123,0,0,1,829.519,568.792Z" transform="translate(-318.899 -259.947)"/><circle class="i" cx="17.171" cy="17.171" r="17.171" transform="translate(506.33 271.956)"/><path class="l" d="M860.283,601c.037,4.736-1.779,9.3-3.657,13.638s-4.265,8.623-6.1,13.08c-.149.36-.291.725-.434,1.091q-4.736,12.237-8.381,24.852l-.18.62H788.282c2.43-9.3,4.513-18.6-1.314-25.013-.18-.2-.36-.4-.533-.62-3.812-4.593-5.523-10.861-10.055-14.766a11.152,11.152,0,0,1-2.895-2.913,5.3,5.3,0,0,1-.545-2.418,16.4,16.4,0,0,1,.136-2.207c.446-4.029,1.023-8.257,3.453-11.505a17,17,0,0,1,3.936-3.657,31.411,31.411,0,0,1,10.978-4.9c4.438-1.017,9.336-1.165,12.956-3.936a15.314,15.314,0,0,1,2.48-1.86l.248-.105a2.579,2.579,0,0,1,2.672.285,3.676,3.676,0,0,1,.893,1.86q.985,3.608,1.977,7.216a7.372,7.372,0,0,0,1.494,3.248c1.754,1.823,5.108,1.606,6.472,3.719.818,1.283,2.969-.211,3.905-1.4a52.581,52.581,0,0,0,5.858-9.261,14.882,14.882,0,0,1,2.17-3.614,4.91,4.91,0,0,1,2.393-1.451,3.225,3.225,0,0,1,1.376-.037,6.477,6.477,0,0,1,3.23,2.393,72.527,72.527,0,0,0,19.056,15.157,3.156,3.156,0,0,1,1.395,1.153,2.388,2.388,0,0,1,.235,1A1.876,1.876,0,0,1,860.283,601Z" transform="translate(-298.733 -268.997)"/><path class="l" d="M836.117,514.306c2.87-.62,5.1,3.5,7.984,3.013,1.587-.26,2.814-1.86,4.414-1.767,1.829.136,2.61,2.294,3.546,3.868a8.573,8.573,0,0,0,8.059,4.06c.992-1.135.806-2.87.3-4.29s-1.283-2.8-1.3-4.3c0-2,1.24-4.209.1-5.839-.88-1.24-2.684-1.351-4.011-2.12a16.792,16.792,0,0,1-2.635-2.424,9.168,9.168,0,0,0-5.362-2.436,18.239,18.239,0,0,0-5.108.465l-7.885,1.475a2.331,2.331,0,0,0-1.24.484,3.418,3.418,0,0,0-.62,1.395c-.75,2.12-3.1,3.1-5,4.283s-3.719,3.5-2.678,5.48c.62,1.122,2,1.81,2.151,3.1.136,1.122-.806,2.046-1.575,2.876-3.248,3.521,4.042,5.356,5.8,2.963C832.986,521.944,832.013,515.174,836.117,514.306Z" transform="translate(-318.282 -239.319)"/><path class="l" d="M914.541,663.652h-14.5c.236-5.939-2.182-11.97-2.48-18.027a44.616,44.616,0,0,0-.378-6.819,14.957,14.957,0,0,0-.465-1.717c-.366-1.147-.812-2.275-1.159-3.428-1.153-3.85-1.11-7.941-1.054-11.958q.1-6.652.211-13.291c0-1.153-.341-2.852.707-3.335,2.362-1.091,4.817,1.072,6.986,2.48,1.3.868,2.79,1.55,4.054,2.48a7.574,7.574,0,0,1,1.928,1.922,10.772,10.772,0,0,1,1.283,3.341q2.635,10.061,4.587,20.289a65.842,65.842,0,0,1,1.24,8.989C915.88,650.926,914.56,657.329,914.541,663.652Z" transform="translate(-344.932 -278.367)"/><path class="l" d="M771.962,663.154a11.163,11.163,0,0,0-1.2,4.748,7.384,7.384,0,0,0,.5,2.157H758.125a48.458,48.458,0,0,1-1.488-6.819,51.22,51.22,0,0,1,.3-13.557,49.484,49.484,0,0,1,2.275-10.272c1.525-4.271,3.936-8.139,5.988-12.156.484-.936.924-1.99,1.438-2.92,1.1-2.039,2.529-3.54,5.368-2.17,7.061,3.4,10.092,15.324,8.127,22.267a.176.176,0,0,1,0,.056,34.365,34.365,0,0,1-2.1,5.127Q774.844,656.323,771.962,663.154Z" transform="translate(-292.411 -284.774)"/><path class="m" d="M590.463,508.5a6.274,6.274,0,0,1,3.316,2.814c.564,1.172.545,2.542.93,3.788.812,2.622,3.254,4.339,4.773,6.633,2.058,3.1,2.3,7.048,2.157,10.768s-.62,7.513.31,11.127c.44,1.761,1.19,3.434,1.494,5.226.366,2.17.062,4.438.62,6.571a17.065,17.065,0,0,0,2.765,5.288l4.823,7.048a55.712,55.712,0,0,1-6.366-1.915,11.42,11.42,0,0,0,3.441,5.2l-3.484-4.215a9.992,9.992,0,0,0-2.6-2.48,14.122,14.122,0,0,0-4.228-1.134c-2.758-.558-5.523-1.971-6.875-4.457-1.8-3.31-.62-7.47-1.655-11.1-.738-2.653-2.56-4.841-3.812-7.284-2.845-5.536-2.672-12.063-3.564-18.225a56.152,56.152,0,0,1-.979-7.86c0-1.953.192-5.66,2.238-6.658C585.541,506.8,588.814,507.8,590.463,508.5Z" transform="translate(-225.978 -241.321)"/><path class="n" d="M581.513,573.756c.291,3.236.967,7.054,3.918,8.412,1.668.769,3.608.484,5.418.781,3.416.552,6.2,3.18,7.811,6.261s2.126,6.577,2.48,10.024c.465,4.308.62,8.989-1.754,12.621-1.915,2.945-5.226,4.736-8.617,5.647a24.046,24.046,0,0,1-20.066-3.719,44.681,44.681,0,0,1-7.383-7.3c-4.916-5.722-9.863-12-10.873-19.471a2.411,2.411,0,0,1,.62-2.38,2.6,2.6,0,0,1,1.581-.316l4.711.087c1.2,0,2.548,0,3.36-.9a4.091,4.091,0,0,0,.732-3.1q-.18-6.819-.36-13.669a1.965,1.965,0,0,1,.31-1.382,1.823,1.823,0,0,1,1.085-.465c2.6-.44,5.313,0,7.854-.707,2.418-.663,6.2-3.44,7.99-.589C581.829,565.982,581.284,571,581.513,573.756Z" transform="translate(-214.902 -262.232)"/><path class="j" d="M581.513,573.756c.291,3.236.967,7.054,3.918,8.412,1.668.769,3.608.484,5.418.781,3.416.552,6.2,3.18,7.811,6.261s2.126,6.577,2.48,10.024c.465,4.308.62,8.989-1.754,12.621-1.915,2.945-5.226,4.736-8.617,5.647a24.046,24.046,0,0,1-20.066-3.719,44.681,44.681,0,0,1-7.383-7.3c-4.916-5.722-9.863-12-10.873-19.471a2.411,2.411,0,0,1,.62-2.38,2.6,2.6,0,0,1,1.581-.316l4.711.087c1.2,0,2.548,0,3.36-.9a4.091,4.091,0,0,0,.732-3.1q-.18-6.819-.36-13.669a1.965,1.965,0,0,1,.31-1.382,1.823,1.823,0,0,1,1.085-.465c2.6-.44,5.313,0,7.854-.707,2.418-.663,6.2-3.44,7.99-.589C581.829,565.982,581.284,571,581.513,573.756Z" transform="translate(-214.902 -262.232)"/><circle class="n" cx="18.008" cy="18.008" r="18.008" transform="translate(336.738 274.621)"/><path class="f" d="M605.483,642.516a16.773,16.773,0,0,1-.514,2.176,51.056,51.056,0,0,1-1.984,4.891c-.285.663-.552,1.327-.781,2.008-.18.533-.335,1.079-.471,1.624s-.3,1.283-.409,1.934c-.167.961-.291,1.934-.391,2.907H553.939a29.3,29.3,0,0,0-.267-7.129,46.9,46.9,0,0,0-2.9-9.453c-2.994-7.674-6.341-15.5-8.183-23.5v-.031a46.7,46.7,0,0,1-1.141-15.894c.037-.31.081-.62.124-.942a24.268,24.268,0,0,1,.453-2.393,13.185,13.185,0,0,1,2.994-6.063c2.108-2.269,5.672-3.391,8.406-1.94a8.514,8.514,0,0,1,3.49,4.141c.521,1.091.961,2.244,1.42,3.341a34.1,34.1,0,0,0,7.116,10.631,23.56,23.56,0,0,0,1.81,1.717c.626.546,1.172,1,1.785,1.475,1.99,1.531,4.389,3.471,6.986,3.54,1.506.043,3.044,0,4.6,0,1.364,0,2.74-.056,4.1,0,2.907.056,6.2-.769,7.606-3.316.961-1.742.8-3.868.62-5.852q-.214-2.325-.434-4.655v-.242c-.1-1.122-.2-2.232-.31-3.354h0c-.05-.539-.1-1.085-.155-1.624h0l-.112-1.2q.775-.087,1.562-.149a11.678,11.678,0,0,1,6.769,1,9,9,0,0,1,3.856,5.065,20.341,20.341,0,0,1,.967,4.649c.694,7.036-.428,14.134-.043,21.188C605.3,632.177,606.382,637.477,605.483,642.516Z" transform="translate(-210.654 -272.772)"/><path class="n" d="M653.236,689.206H639.022c-.118-1.612-.211-3.224-.267-4.841-.05-1.116-.087-2.238-.105-3.354q-.093-4.513.074-9a20.3,20.3,0,0,0,9.144,2.61,17.513,17.513,0,0,1,3.1,4.916,23.838,23.838,0,0,1,1.06,3.044.086.086,0,0,1,0,.043,40.673,40.673,0,0,1,1.209,6.583Z" transform="translate(-247.677 -303.921)"/><path class="f" d="M650.176,655.129a66.143,66.143,0,0,0-15.931,2.108,34.5,34.5,0,0,1,0-10.352l2.3-23.686c.167-1.754-.155-17.859,3.242-15.014,1.24,1.048,2.827,10.464,3.217,11.976.589,2.287,1.054,4.6,1.469,6.918.849,4.761,1.426,9.559,2.25,14.326C646.959,642.78,648.949,655.141,650.176,655.129Z" transform="translate(-245.863 -279.532)"/><path class="m" d="M564.678,509.415a3.1,3.1,0,0,0-.372-1.618,2.69,2.69,0,0,0-1.928-1.017c-2.6-.4-5.449.62-7.8-.545-1.24-.62-2.176-1.86-3.416-2.548-2.926-1.655-6.62,0-9.212,2.145a26.892,26.892,0,0,0-8.635,13.154c-1.153,3.98-1.618,8.635-4.916,11.158-1.364,1.041-3.1,1.618-4.122,3.006a7.69,7.69,0,0,0-1.091,3.719c-.341,3.025-.62,6.125.167,9.063.62,2.188,1.767,4.172,2.48,6.323a16.787,16.787,0,0,1-4.575,17.469,5.442,5.442,0,0,0,4.029.7,3.453,3.453,0,0,1-.583,1.779c4.215-.136,7.879-4.24,12-3.341,3.149.682,4.9,3.93,7.253,6.137,3.025,2.845,7.724,4.036,11.524,2.349s6.106-6.484,4.494-10.315c-1.86-4.339-7.495-6.081-9.46-10.389-1.519-3.341-.391-7.234-.719-10.885-.279-3.137-1.63-6.056-2.48-9.088s-1.116-6.5.62-9.137c1.823-2.8,5.313-3.893,8.486-4.959C563.574,520.269,564.95,516.643,564.678,509.415Z" transform="translate(-203.069 -239.684)"/><path class="n" d="M574.192,600.3c.514-2.48,1.023-5.189.118-7.588-1.686-4.476-7.2-5.87-11.009-8.753a14.878,14.878,0,0,1-4.9-6.528c-.694-1.816-.787-4.339.917-5.257a4.135,4.135,0,0,1,2.126-.372c5.939.136,11.381,3.366,15.938,7.185,2.647,2.225,5.164,4.773,6.484,7.966a26.005,26.005,0,0,1,1.506,7.16l.93,8.059a126.328,126.328,0,0,1,1.072,13.929,61.447,61.447,0,0,1-.5,7.99,11.966,11.966,0,0,1-1.692,5.362c-2.058,2.87-6.013,3.515-9.546,3.614a16.487,16.487,0,0,1-3.986-.254c-5.87-1.277-10.321-9.5-5.883-14.574,1.86-2.157,4.724-2.213,5.8-5.17C573,609.148,573.349,604.406,574.192,600.3Z" transform="translate(-217.009 -265.824)"/><path class="f" d="M562.491,612.319l4.631,7.569a3.457,3.457,0,0,1,.564,1.308c.13.986-.62,1.86-1.19,2.659-3.992,5.455-2.976,12.956-1.773,19.607a35.588,35.588,0,0,1-24.461-28.807c-.583-3.961-1.525-10.482,1.99-13.061C550.719,595.383,558.518,605.835,562.491,612.319Z" transform="translate(-210.076 -276.433)"/><path class="m" d="M608.671,585.875c-1.81-.3-3.719,0-5.418-.781-2.951-1.358-3.626-5.176-3.918-8.412,0-.3-.043-.62-.056-.973a26.918,26.918,0,0,1,3.428-2.982,16.844,16.844,0,0,1,3.5-1.544l3.273-1.153a18.743,18.743,0,0,1,.707,2.666c.366,2.17.062,4.438.62,6.571a17.064,17.064,0,0,0,2.765,5.288L618.4,591.6c-.874-.2-1.742-.44-2.6-.688A10.94,10.94,0,0,0,608.671,585.875Z" transform="translate(-232.725 -265.158)"/><path class="o" d="M109.974,748.8c1.86-3.416-.248-7.606-2.659-10.65s-5.337-6.2-5.275-10.1c.093-5.579,6.013-8.871,10.743-11.834a52.072,52.072,0,0,0,9.646-7.755,14.134,14.134,0,0,0,2.963-3.967c.979-2.182.955-4.662.893-7.048-.106-4-.258-7.99-.465-12.16-.188-3.783-.431-7.742-.719-11.7" transform="translate(-43.722 -304.521)"/><path class="f" d="M143.116,667.8a8.678,8.678,0,0,0-4.339-7.129l-1.946,3.856.062-4.668a8.815,8.815,0,0,0-2.87-.347,8.679,8.679,0,1,0,9.1,8.288Z" transform="translate(-52.744 -299.168)"/><path class="f" d="M118.669,760.118a8.678,8.678,0,1,1,.422-7l-5.437,4.42,5.982-1.382a8.678,8.678,0,0,1-.967,3.967Z" transform="translate(-43.813 -332.599)"/><path class="f" d="M116.093,729.965a8.679,8.679,0,0,1-2.759-17.066l-.05,3.583,1.971-3.9h0a8.679,8.679,0,0,1,9.119,8.313,8.581,8.581,0,0,1-.372,2.969,8.679,8.679,0,0,1-7.91,6.1Z" transform="translate(-45.533 -319.338)"/><path class="f" d="M150.343,707.361a8.679,8.679,0,1,1,3.85-16.285l-1.537,4.215,3.161-3.038a8.679,8.679,0,0,1,2.808,6.007,8.548,8.548,0,0,1-.217,2.4A8.679,8.679,0,0,1,150.343,707.361Z" transform="translate(-58.663 -310.762)"/><path class="j" d="M141.969,673.042c-2.008.217-3.961.843-5.976.967s-4.228-.353-5.5-1.922a26.919,26.919,0,0,1-1.606-2.833,6.2,6.2,0,0,0-2.194-2.064,8.679,8.679,0,1,0,16.266,5.778Q142.459,672.986,141.969,673.042Z" transform="translate(-52.769 -302.089)"/><path class="j" d="M150.269,710.4a8.679,8.679,0,0,1-8.276-12.4,6.428,6.428,0,0,1,1.748,1.748,28.44,28.44,0,0,0,1.723,2.876c1.358,1.593,3.67,2.114,5.771,2.021s4.129-.694,6.2-.886c.291,0,.583-.043.88-.05A8.679,8.679,0,0,1,150.269,710.4Z" transform="translate(-58.589 -313.799)"/><path class="j" d="M116.2,733.119a8.679,8.679,0,0,1-8.344-12.249,7.117,7.117,0,0,1,1.86,1.767c.676.955,1.1,2.058,1.86,2.938,1.469,1.63,3.936,2.207,6.156,2.157s4.234-.577,6.373-.744A8.679,8.679,0,0,1,116.2,733.119Z" transform="translate(-45.639 -322.492)"/><path class="j" d="M118.527,763.528a8.689,8.689,0,1,1-15.863-7.1,8.585,8.585,0,0,1,1.909,1.7,37.839,37.839,0,0,0,2.331,3.1c1.779,1.748,4.649,2.479,7.209,2.535a37.184,37.184,0,0,0,4.414-.242Z" transform="translate(-43.671 -336.009)"/><path class="e" d="M93.67,786.3s6.868-.211,8.939-1.686,10.538-3.23,11.071-.868,10.321,11.778,2.573,11.815-18.014-1.2-20.085-2.48S93.67,786.3,93.67,786.3Z" transform="translate(-40.541 -345.951)"/><path class="d" d="M116.389,797c-7.755.062-18.014-1.24-20.078-2.48-1.575-.961-2.2-4.4-2.411-5.982H93.67s.434,5.542,2.48,6.819,12.33,2.523,20.085,2.48c2.238,0,3.007-.812,2.963-1.99C118.906,796.543,118.051,796.983,116.389,797Z" transform="translate(-40.541 -348.214)"/><path class="o" d="M1031.938,699.255c3.279-6.075-.44-13.52-4.724-18.944s-9.5-11.059-9.385-17.977c.161-9.918,10.693-15.789,19.105-21.046a92.91,92.91,0,0,0,17.159-13.8,24.742,24.742,0,0,0,5.275-7.054c1.742-3.881,1.692-8.294,1.581-12.547q-.552-21.238-2.1-42.438" transform="translate(-391.815 -263.417)"/><path class="f" d="M1090.816,555.176a15.454,15.454,0,0,0-7.724-12.683l-3.465,6.856.105-8.3a15.5,15.5,0,1,0,11.084,14.127Z" transform="translate(-407.784 -253.9)"/><path class="f" d="M1047.333,719.368a15.5,15.5,0,1,1,.744-12.46l-9.664,7.866,10.631-2.48a15.346,15.346,0,0,1-1.711,7.073Z" transform="translate(-391.899 -313.341)"/><path class="f" d="M1043.121,665.717a15.5,15.5,0,0,1-4.91-30.375l-.08,6.379,3.5-6.937h.043a15.5,15.5,0,1,1,1.444,30.92Z" transform="translate(-395.306 -289.743)"/><path class="f" d="M1103.566,625.408a15.5,15.5,0,1,1,6.819-28.962l-2.734,7.495,5.629-5.4a15.4,15.4,0,0,1,5,10.681,15.183,15.183,0,0,1-.4,4.265A15.5,15.5,0,0,1,1103.566,625.408Z" transform="translate(-418.203 -274.434)"/><path class="j" d="M1088.716,564.5c-3.571.391-7.042,1.5-10.631,1.723s-7.519-.62-9.788-3.422c-1.24-1.5-1.86-3.4-2.864-5.04a10.974,10.974,0,0,0-3.893-3.664,15.5,15.5,0,1,0,28.931,10.272C1089.881,564.4,1089.3,564.44,1088.716,564.5Z" transform="translate(-407.767 -259.103)"/><path class="j" d="M1103.64,630.865a15.5,15.5,0,0,1-14.723-22.075,11.438,11.438,0,0,1,3.1,3.1c1.1,1.668,1.767,3.589,3.1,5.114,2.405,2.839,6.528,3.763,10.259,3.6s7.34-1.24,11.065-1.575c.515-.043,1.035-.081,1.556-.093A15.5,15.5,0,0,1,1103.64,630.865Z" transform="translate(-418.277 -279.891)"/><path class="j" d="M1043.055,671.369a15.5,15.5,0,0,1-14.878-21.789,12.55,12.55,0,0,1,3.267,3.149c1.2,1.7,1.953,3.651,3.36,5.213,2.616,2.907,7,3.936,10.96,3.843,3.831-.087,7.519-1.029,11.332-1.32A15.5,15.5,0,0,1,1043.055,671.369Z" transform="translate(-395.239 -295.395)"/><path class="j" d="M1047.414,725.467A15.5,15.5,0,0,1,1019.2,712.84a15.5,15.5,0,0,1,3.4,3.025c1.469,1.8,2.442,3.831,4.141,5.5,3.168,3.1,8.276,4.383,12.819,4.5a67.365,67.365,0,0,0,7.86-.4Z" transform="translate(-391.98 -319.44)"/><path class="e" d="M1002.94,765.95s12.212-.378,15.894-3,18.789-5.753,19.707-1.55,18.355,20.915,4.562,21.021-32.042-2.145-35.718-4.383S1002.94,765.95,1002.94,765.95Z" transform="translate(-386.157 -337.117)"/><path class="d" d="M1043.351,785.016c-13.793.112-32.042-2.145-35.718-4.383-2.8-1.7-3.912-7.823-4.29-10.644h-.4s.769,9.85,4.445,12.088,21.932,4.494,35.718,4.383c3.986-.031,5.356-1.444,5.282-3.546C1047.833,784.2,1046.314,785,1043.351,785.016Z" transform="translate(-386.157 -341.163)"/></g></svg>