<svg xmlns="http://www.w3.org/2000/svg" width="782.617" height="571.537" viewBox="0 0 782.617 571.537"><defs><style>.a{fill:#f2c12e;}.b,.h,.l{fill:#110002;}.c{fill:#a60311;}.d{fill:#f2d98d;}.e{fill:#2f2e41;}.f,.l,.n{opacity:0.1;}.g{fill:#3f3d56;}.h{opacity:0.4;}.i{fill:#6c63ff;}.j,.n{fill:#130002;}.k{fill:#f28705;}.m{fill:#ffb9b9;}</style></defs><path class="a" d="M295.5,317.12V433.726H927.28V350.654a330.3,330.3,0,0,0-61.718-123.164L424.6,156.462A333.474,333.474,0,0,0,386.649,185.4l261.4,99.712L358.658,213.182a333.024,333.024,0,0,0-32.249,42.432l59.059,44.158-66.73-31.582A332.14,332.14,0,0,0,302.031,301.1Q298.564,309.012,295.5,317.12Z" transform="translate(-295.5 -102.507)"/><path class="a" d="M379.289,121.593A332.111,332.111,0,0,1,779.7,207.665C675.457,184.824,493.953,145.283,379.289,121.593Z" transform="translate(-214.095 -88.141)"/><path class="b" d="M295.5,359.651v201.89H922.414a9.765,9.765,0,0,0,4.865-8.444V385.5a45.871,45.871,0,0,0-45.885-45.877H315.533A20.034,20.034,0,0,0,295.5,359.65Z" transform="translate(-295.5 -141.02)"/><path class="c" d="M955.418,605.977c0-8.025,4.072-14.531,9.1-14.531,3.158,0,5.938,2.571,7.569,6.473a4.558,4.558,0,0,1,1.738-.349,5.449,5.449,0,0,1,4.073,2.1c1.47-4.865,4.588-8.222,8.2-8.222,3.374,0,6.316,2.936,7.887,7.295a4.967,4.967,0,0,1,3.113-1.171c3.855,0,6.981,4.993,6.981,11.151a16.266,16.266,0,0,1-1.1,6H957.252a20.675,20.675,0,0,1-1.835-8.75Z" transform="translate(-893.44 -193.973)"/><path class="c" d="M368.919,599.235c0-11.487,4.072-20.8,9.1-20.8,3.157,0,5.938,3.68,7.569,9.265a3.411,3.411,0,0,1,1.738-.5c1.52,0,2.926,1.115,4.073,3,1.47-6.964,4.588-11.768,8.2-11.768,3.374,0,6.316,4.2,7.886,10.441a4.225,4.225,0,0,1,3.113-1.675c3.855,0,6.98,7.146,6.98,15.961a32.3,32.3,0,0,1-1.1,8.595H370.753A40.7,40.7,0,0,1,368.919,599.235Z" transform="translate(156.232 -191.238)"/><path class="d" d="M897.006,434.654h-4.665a8.021,8.021,0,0,0-8,8V493.3a14,14,0,0,1-14,14h0a14,14,0,0,1-14-14V370.676a8.021,8.021,0,0,0-8-8h-4.665a8.02,8.02,0,0,0-8,8V493.3a14,14,0,0,1-14,14h0a14,14,0,0,1-14-14V418.66a8.02,8.02,0,0,0-8-8h-4.665a8.021,8.021,0,0,0-8,8V493.3a14,14,0,0,1-14,14h0a14,14,0,0,1-14-14V470.642a8.021,8.021,0,0,0-8-8h-4.665a8.02,8.02,0,0,0-8,8V493.3a14,14,0,0,1-14,14h0a14,14,0,0,1-13.995-14V413.995a8.021,8.021,0,0,0-8-8h-4.665a8.021,8.021,0,0,0-8,8V493.3a14,14,0,0,1-14,14h0a14,14,0,0,1-14-14V392.668a8.02,8.02,0,0,0-8-8h-4.665a8.021,8.021,0,0,0-8,8V493.3a14,14,0,0,1-13.995,14h0a14,14,0,0,1-14-14V442.652a8.021,8.021,0,0,0-8-8h-4.665a8.021,8.021,0,0,0-8,8V493.3a14,14,0,0,1-14,14h0a14,14,0,0,1-13.995-14V418.66a8.021,8.021,0,0,0-8-8h-4.665a8.021,8.021,0,0,0-8,8V493.3a14,14,0,0,1-14,14h-6.247a14.456,14.456,0,0,1-10.137-4.347,7.953,7.953,0,0,0-5.609-2.317h-4.665a7.952,7.952,0,0,0-5.609,2.317A14.457,14.457,0,0,1,487.4,507.3h-6.247a14,14,0,0,1-14-14V485.97a8.021,8.021,0,0,0-8-8h-4.665a8.021,8.021,0,0,0-8,8V493.3a14,14,0,0,1-14,14h0a14,14,0,0,1-14-14V413.995a8.021,8.021,0,0,0-8-8h-4.665a8.021,8.021,0,0,0-8,8V493.3a14,14,0,0,1-14,14h0a14,14,0,0,1-14-14V442.651a8.021,8.021,0,0,0-8-8h-4.665a7.977,7.977,0,0,0-6,2.734V360.132A28.108,28.108,0,0,1,379.3,332.023H880.765A24.238,24.238,0,0,1,905,356.262v86.39A8.021,8.021,0,0,0,897.006,434.654Z" transform="translate(-317.208 -139.423)"/><rect class="e" width="3.915" height="154.649" transform="translate(188.818 207.557)"/><path class="c" d="M805.3,349.9c-.22,47.27,28.823,86.85,36.134,96.06,1.06,1.326,1.659,2.026,1.659,2.026s.833-.947,2.253-2.733c7.657-9.616,32.409-43.625,36.007-85.443.027-.293.053-.587.073-.88q.34-4.289.367-8.684a121.977,121.977,0,0,0-1.839-21.433c-.06-.393-.133-.78-.2-1.173C871.888,284.42,844,252.158,844,252.158a163.927,163.927,0,0,0-15.708,22.366c-.12.2-.24.4-.353.6a182.915,182.915,0,0,0-9.643,18.64c-.107.22-.2.44-.294.66C811.042,310.171,805.391,329.278,805.3,349.9Z" transform="translate(-652.611 -122.63)"/><rect class="e" width="3.915" height="154.649" transform="translate(429.401 178.233)"/><path class="c" d="M500.654,312.763c-.249,54.077,37.8,98.091,37.8,98.091s38.45-43.661,38.7-97.738-37.8-98.091-37.8-98.091S500.9,258.686,500.654,312.763Z" transform="translate(-107.385 -114.821)"/><path class="f" d="M457.627,388.736a2.7,2.7,0,1,0,4.578-2.87c-1.081-1.724-4.745-2.482-4.745-2.482S456.545,387.012,457.627,388.736Z" transform="translate(41.409 -150.223)"/><path class="f" d="M781.678,414.9a2.7,2.7,0,1,0,4.578-2.87c-1.081-1.724-4.745-2.482-4.745-2.482S780.6,413.172,781.678,414.9Z" transform="translate(-538.553 -155.724)"/><path class="f" d="M603.427,401.881a2.7,2.7,0,1,0,5.266,1.208c.455-1.983-1.6-5.11-1.6-5.11S603.882,399.9,603.427,401.881Z" transform="translate(-220.071 -153.292)"/><path class="f" d="M892.879,493.021a2.7,2.7,0,1,0,5.267,1.208c.455-1.983-1.6-5.11-1.6-5.11S893.334,491.037,892.879,493.021Z" transform="translate(-738.11 -172.456)"/><path class="f" d="M574.237,441.924c-.782,3.409.972,5.063,3.471,5.637s4.8-.152,5.58-3.561-2.75-8.783-2.75-8.783S575.019,438.516,574.237,441.924Z" transform="translate(-171.599 -161.122)"/><path class="f" d="M697.908,462.867c1.639,3.089,4.048,3.193,6.313,1.991s3.529-3.255,1.891-6.344-7.826-4.843-7.826-4.843S696.27,459.777,697.908,462.867Z" transform="translate(-392.361 -165.003)"/><path class="f" d="M819.734,507.7c.455,3.467,2.676,4.407,5.218,4.073s4.445-1.816,3.989-5.283-5.639-7.273-5.639-7.273S819.278,504.234,819.734,507.7Z" transform="translate(-611.202 -174.58)"/><rect class="g" width="94.968" height="0.666" transform="translate(469.618 216.136) rotate(-134.129)"/><rect class="g" width="94.968" height="0.666" transform="translate(462.953 238.795) rotate(-134.129)"/><path class="g" d="M807.627,281.078l52.015,53.688c-.06-.393-.133-.78-.2-1.173L807.98,280.478C807.861,280.679,807.741,280.878,807.627,281.078Z" transform="translate(-632.301 -128.585)"/><rect class="g" width="94.969" height="0.667" transform="matrix(-0.696, -0.718, 0.718, -0.696, 225.676, 258.814)"/><path class="g" d="M804.057,305.5l63.352,65.384.94.973.48-.466-1.346-1.386L804.35,304.842C804.243,305.061,804.15,305.282,804.057,305.5Z" transform="translate(-638.668 -133.707)"/><path class="e" d="M531.848,288.591h8.334v-8.333h-8.334Zm7.693-.641H532.49V280.9h7.051Z" transform="translate(-95.052 -128.538)"/><path class="e" d="M845.772,428.676h8.334v-8.334h-8.334Zm7.693-.641h-7.052v-7.051h7.052Z" transform="translate(-656.889 -157.994)"/><ellipse class="h" cx="9.943" cy="9.943" rx="9.943" ry="9.943" transform="translate(521.151 66.205)"/><ellipse class="h" cx="6.975" cy="6.975" rx="6.975" ry="6.975" transform="translate(542.522 73.922)"/><ellipse class="h" cx="20.825" cy="20.825" rx="20.825" ry="20.825" transform="translate(76.622 29.829)"/><ellipse class="h" cx="14.608" cy="14.608" rx="14.608" ry="14.608" transform="translate(112.548 62.534)"/><path class="e" d="M461.206,550.708l.633-.012a146.767,146.767,0,0,0-2.247-20.978c-2.737-14.837-7.288-24.581-13.527-28.961l-.363.518C460.276,511.506,461.2,550.317,461.206,550.708Z" transform="translate(51.323 -174.904)"/><path class="e" d="M462.363,558.012,463,558c-.014-.7-.409-17.221-6.913-21.787l-.363.518C461.96,541.112,462.359,557.844,462.363,558.012Z" transform="translate(42.255 -182.359)"/><circle class="i" cx="3.165" cy="3.165" r="3.165" transform="translate(490.259 320.098)"/><circle class="i" cx="3.165" cy="3.165" r="3.165" transform="translate(491.826 347.315)"/><path class="e" d="M449.428,502.139a14.055,14.055,0,0,0,.955,7.2,12.812,12.812,0,0,0,2.154-13.757A14.055,14.055,0,0,0,449.428,502.139Z" transform="translate(56.665 -173.815)"/><path class="e" d="M464.487,514.349a14.06,14.06,0,0,0,7.253.313,12.811,12.811,0,0,0-13.172-4.518,14.057,14.057,0,0,0,5.918,4.2Z" transform="translate(31.261 -176.798)"/><path class="e" d="M465.612,545.235a9.854,9.854,0,0,0,5.084.22,8.98,8.98,0,0,0-9.232-3.167A9.85,9.85,0,0,0,465.612,545.235Z" transform="translate(30.019 -183.581)"/><path class="j" d="M0,723.3H271.665v-1.579H.79Z" transform="translate(510.952 -151.759)"/><path class="k" d="M221.491,781.92s4.766,19.93.433,20.8-25.562.587-30.761,1.453-16.03-.587-16.03-4.486,11.265-6.5,11.265-6.5,16.03-8.665,16.464-9.1S221.491,781.92,221.491,781.92Z" transform="translate(503.093 -234.025)"/><path class="j" d="M199.192,632.668s-1.3,14.731-1.3,16.03,1.3,21.663,0,22.53.866,6.932.866,9.1,6.932,38.127,5.2,51.991,2.6,12.564,1.3,13.864-1.3,1.3-1.3,3.9-13.864,4.766-13.864,4.766L174.929,659.1l7.8-28.595Z" transform="translate(521.493 -202.186)"/><path class="l" d="M199.192,632.668s-1.3,14.731-1.3,16.03,1.3,21.663,0,22.53.866,6.932.866,9.1,6.932,38.127,5.2,51.991,2.6,12.564,1.3,13.864-1.3,1.3-1.3,3.9-13.864,4.766-13.864,4.766L174.929,659.1l7.8-28.595Z" transform="translate(521.493 -202.186)"/><path class="k" d="M230.019,789.011s4.333,15.6,0,16.464-25.562-.992-30.761-.126-16.031.993-16.031-2.907,11.265-6.5,11.265-6.5,16.03-8.665,16.464-9.1S230.019,789.011,230.019,789.011Z" transform="translate(488.499 -235.051)"/><path class="b" d="M218.235,611.3s5.2,12.565-.867,19.063-13,19.5-13,20.363,12.131,87.085,10.4,92.717-1.3,9.1-.867,9.965-4.333,5.632-9.532,5.632-13-3.9-13.864-7.365,1.3-33.361.867-38.993-2.6-13.864-3.466-15.6-5.632-3.466-6.5-8.665-7.8-71.487-5.632-73.654S218.235,611.3,218.235,611.3Z" transform="translate(506.349 -198.148)"/><ellipse class="m" cx="14.731" cy="14.731" rx="14.731" ry="14.731" transform="translate(676.926 284.042)"/><path class="m" d="M228.1,475.257s-3.033,16.03-.867,17.763-16.464,4.332-16.464,4.332-2.166-21.229-2.6-23.4S228.1,475.257,228.1,475.257Z" transform="translate(472.659 -169.119)"/><path class="c" d="M183.214,499.035s5.2-15.164,26.429-10.832c0,0,3.9,1.3,2.6,2.6s-2.6,1.3-.867,2.6,3.9,0,2.6,1.3,11.7,9.1,10.831,23.829,3.033,35.527,0,38.993,2.166,18.63,1.3,21.663,5.2,6.932,2.6,8.232-49.391,9.1-50.691,0-.433-2.6-1.733-4.766-1.733-6.066-.867-10.831,3.033-16.464,2.166-20.8,0-40.726,2.6-45.059A22.484,22.484,0,0,0,183.214,499.035Z" transform="translate(497.61 -172.1)"/><path class="m" d="M228.326,635.758s6.5,24.7-1.733,24.7-7.8-25.562-7.8-25.562Z" transform="translate(461.597 -203.109)"/><path class="j" d="M184.382,461.029c0,1.256,1.82,2.054,4.64,2.236h0a23.584,23.584,0,0,0,3.587-.069c1.8-.165,2.548,1.53,2.855,3.765.5,3.687-.2,8.856.611,9.666,1.118,1.118,9.267,0,11.815-2.539a2.354,2.354,0,0,0,.749-1.361,7.238,7.238,0,0,1,2.175-4.042c1.5-1.642,3.644-3.462,6.057-6.356,4.333-5.2,0-5.632-1.3-9.531s-3.466-5.2-3.466-7.8-9.965-4.766-18.2-4.333-6.5,10.831-6.5,10.831-.49,1.257-1.075,2.877a45.183,45.183,0,0,0-1.924,6.247A3.159,3.159,0,0,0,184.382,461.029Z" transform="translate(500.775 -162.256)"/><path class="k" d="M121.385,355.342v-3.9l11.7.866,1.6,6.47-3.28,4.164-7.851-5Z" transform="translate(552.075 -73.899)"/><path class="n" d="M121.385,355.342v-3.9l11.7.866,1.6,6.47-3.28,4.164-7.851-5Z" transform="translate(552.075 -73.899)"/><path class="k" d="M194.433,451.715l7.8,2.166,7.8,4.766,3.068,1.759,4.605,2.643h0l6.443,3.7,12.426,7.127a2.354,2.354,0,0,0,.75-1.36,7.239,7.239,0,0,1,2.175-4.042l-24.479-14.31-1.958-1.144-11.7-13.431Z" transform="translate(472.095 -162.04)"/><path class="n" d="M210.521,510.354s14.731-.867,16.03,20.8.867,42.026.867,42.459-6.066,41.593-11.7,41.593-9.965-.867-11.265-3.033,3.466-33.361,3.466-33.361,2.166-32.927-1.3-43.325S202.723,511.654,210.521,510.354Z" transform="translate(476.369 -176.92)"/><path class="c" d="M213.264,507.611s14.731-.866,16.03,20.8.867,42.026.867,42.459-6.066,41.593-11.7,41.593-9.965-.867-11.265-3.033,3.466-33.361,3.466-33.361,2.166-32.927-1.3-43.326S205.466,508.911,213.264,507.611Z" transform="translate(471.46 -176.344)"/></svg>