<svg xmlns="http://www.w3.org/2000/svg" viewBox="0 0 777.44 165.52"><defs><style>.cls-1{fill:#fff;stroke:#fff;stroke-miterlimit:10;stroke-width:5px;}</style></defs><title>Fichier 1logo</title><g id="Calque_2" data-name="Calque 2"><g id="Calque_1-2" data-name="Calque 1"><text/><polygon class="cls-1" points="25.47 11.26 105.84 11.26 59.41 138.94 10.58 4.69 3.57 4.69 59.41 158.21 115.26 4.69 25.47 4.69 25.47 11.26"/><polygon class="cls-1" points="259.51 74.77 227.2 74.77 227.2 81.34 259.51 81.34 259.51 157.99 266.08 157.99 266.08 4.69 259.51 4.69 259.51 74.77"/><polygon class="cls-1" points="180.67 74.77 180.67 4.69 174.1 4.69 174.1 157.99 180.67 157.99 180.67 81.34 211.57 81.34 211.57 74.77 180.67 74.77"/><path class="cls-1" d="M347.7,40.06q3.06-12.38,9.2-18.94a34.75,34.75,0,0,1,13.8-9.31,54.68,54.68,0,0,1,18.39-2.74q19.49,0,28.69,6.9T432,35.57l5.91-2.85Q432,18.27,421.28,10.38T389.09,2.5q-26.94,0-39,16.53T338.06,70.61V92.07q0,35,12.05,51.58,10.47,14.37,32.21,16.24V153.3a47.49,47.49,0,0,1-11.62-2.43,34.62,34.62,0,0,1-13.8-9.3q-6.13-6.57-9.2-18.95t-3.07-30.55V70.61Q344.63,52.43,347.7,40.06Z"/><path class="cls-1" d="M421.28,152.3Q432,144.41,437.93,130L432,127.11q-5,12.71-14.24,19.6-7,5.22-19.83,6.49v6.6Q412.89,158.45,421.28,152.3Z"/><rect class="cls-1" x="504.87" y="4.69" width="6.57" height="153.3"/><polygon class="cls-1" points="680.29 11.26 680.29 4.69 588.24 4.69 588.24 157.99 679.79 157.99 679.79 151.42 594.82 151.42 594.82 11.26 680.29 11.26"/><rect class="cls-1" x="612.18" y="75.32" width="49.69" height="6.52"/></g></g></svg>